<?xml version="1.0" standalone="no"?>
<!DOCTYPE svg PUBLIC "-//W3C//DTD SVG 20010904//EN"
 "http://www.w3.org/TR/2001/REC-SVG-20010904/DTD/svg10.dtd">
<svg version="1.0" xmlns="http://www.w3.org/2000/svg"
 width="512.000000pt" height="512.000000pt" viewBox="0 0 512.000000 512.000000"
 preserveAspectRatio="xMidYMid meet">

<g transform="translate(0.000000,512.000000) scale(0.100000,-0.100000)"
fill="#000000" stroke="none">
<path d="M1954 5101 c-69 -31 -111 -106 -101 -180 3 -23 78 -167 201 -385 108
-192 196 -352 196 -357 0 -4 -282 -10 -627 -11 -618 -3 -629 -3 -693 -25 -210
-72 -376 -248 -437 -463 -17 -62 -18 -141 -18 -1590 0 -1701 -5 -1573 70
-1725 85 -173 260 -310 450 -350 104 -22 3025 -22 3129 0 241 51 437 240 503
485 17 61 18 166 18 1590 0 1449 -1 1528 -18 1590 -66 231 -248 413 -473 470
-73 19 -111 20 -681 20 -343 0 -603 4 -603 9 0 5 88 166 197 357 219 389 224
402 181 484 -55 107 -185 132 -269 52 -25 -25 -101 -150 -224 -369 -103 -183
-191 -333 -195 -333 -4 0 -92 150 -195 333 -103 182 -201 347 -218 365 -51 52
-122 65 -193 33z m2139 -1301 c75 -28 130 -79 167 -153 l30 -62 -2 -1510 c-3
-1458 -4 -1511 -22 -1545 -38 -71 -77 -109 -144 -142 l-67 -33 -1495 0 -1495
0 -67 33 c-67 33 -106 71 -144 142 -18 34 -19 87 -22 1545 l-2 1510 30 62 c36
73 92 125 164 152 50 19 88 20 1533 20 1460 1 1483 1 1536 -19z"/>
<path d="M2500 2505 c-152 -56 -990 -432 -1013 -454 -41 -38 -57 -73 -57 -128
0 -62 33 -121 85 -151 72 -42 113 -31 430 107 154 68 315 138 358 157 l77 33
0 -122 c0 -141 10 -185 50 -231 40 -45 79 -60 143 -54 46 5 426 164 982 412
98 44 135 92 135 176 0 113 -105 198 -208 170 -22 -5 -194 -77 -383 -160 -189
-82 -346 -150 -350 -150 -4 0 -9 62 -11 138 -3 122 -6 141 -26 177 -48 80
-130 111 -212 80z"/>
</g>
</svg>
